<svg xmlns="http://www.w3.org/2000/svg" width="1358.608" height="2156.748" viewBox="0 0 1358.608 2156.748">
  <defs>
    <style>
      .cls-1 {
        fill: #ffd9d9;
      }

      .cls-2 {
        fill: #ffd1d1;
      }

      .cls-3 {
        fill: #e9e9e9;
      }

      .cls-4 {
        fill: #292929;
      }

      .cls-5 {
        fill: #21b88e;
      }

      .cls-6 {
        fill: #a45959;
      }

      .cls-7 {
        fill: #ff8906;
      }

      .cls-8 {
        fill: #700b2e;
      }

      .cls-9 {
        fill: #e89f9f;
      }

      .cls-10 {
        fill: #1d1d1d;
      }

      .cls-11 {
        fill: #b8670d;
      }

      .cls-12 {
        fill: #ffd5d5;
      }

      .cls-13 {
        fill: #fff2f2;
      }

      .cls-14 {
        fill: #f6c3c3;
      }

      .cls-15 {
        fill: #924b4b;
      }

      .cls-16 {
        fill: #fff;
      }

      .cls-17 {
        fill: #ffe2e2;
      }

      .cls-18 {
        fill: #7d3434;
      }

      .cls-19 {
        fill: #e9dfdf;
      }

      .cls-20 {
        fill: #111;
      }

      .cls-21 {
        fill: #ffd2d2;
      }

      .cls-22 {
        fill: #241d1d;
      }

      .cls-23 {
        fill: #7d4b4b;
      }

      .cls-24 {
        fill: #232323;
      }

      .cls-25 {
        fill: #0c0b0b;
      }

      .cls-26 {
        fill: #010101;
      }

      .cls-27 {
        fill: #e53170;
      }

      .cls-28 {
        fill: #f25f4c;
      }

      .cls-29, .cls-39 {
        fill: #ffa847;
      }

      .cls-29 {
        opacity: 0.82;
      }

      .cls-30 {
        fill: #fe8f80;
      }

      .cls-31 {
        fill: #d54835;
      }

      .cls-32 {
        fill: #5d5d5d;
      }

      .cls-33 {
        fill: #f2f2f2;
      }

      .cls-34 {
        fill: none;
        stroke: #292929;
      }

      .cls-35 {
        fill: #cbcbcb;
      }

      .cls-36 {
        fill: #505050;
      }

      .cls-37 {
        fill: #787878;
      }

      .cls-38 {
        fill: #7d7d7d;
      }

      .cls-39 {
        opacity: 0.84;
      }
    </style>
  </defs>
  <g id="Group_51" data-name="Group 51" transform="translate(-103.707 -56.642)">
    <path id="Path_4" data-name="Path 4" class="cls-1" d="M816.911-392.846S603.577-314.8,616.585-88.455s80.65,395.447,80.65,395.447L798.7,434.472h330.406l70.244-145.691L1308.618,57.236,1287.8-192.52V-317.4L960-444.878Z" transform="translate(-65 945)"/>
    <path id="Path_15" data-name="Path 15" class="cls-2" d="M1053.113-125.627l2.073,20.731s17.828,27.364,27.364,30.681S1118.622-55.973,1126.5-53.9s57.631-12.024,57.631-12.024,18.243-29.023,19.9-32.34,4.561-29.852,4.561-29.852l-6.634-17-20.316,11.195-44.778,18.243h-29.852l-17.414-5.39-26.535-9.121Z" transform="translate(-68 949)"/>
    <path id="Path_8" data-name="Path 8" class="cls-3" d="M1053.113-144.7l14.926-17.414,21.145-13.268,34-11.609h43.949l21.974,15.755,4.561,3.317-7.048,17.828-9.536,20.316-42.29,12.024h-24.877l-37.315-8.292h-17l-4.975-3.732Z" transform="translate(-68 949)"/>
    <path id="Path_107" data-name="Path 107" class="cls-4" d="M827.15-343.705l35.071-12.486h95.948l11.172-16.43,17.744-24.973,44.031,24.973,71.633,2.629,21.03,7.229,59.8,19.058,34.173-12.486-124.207-33.516-76.233-13.8s-41.4-23-43.374-20.373-42.717,46.66-42.717,46.66H843.162Z" transform="translate(-68 949)"/>
    <path id="Path_10" data-name="Path 10" class="cls-5" d="M1133.133-184.5s17,7.463,21.145,34.413c1.812,11.777-22.8,30.681-22.8,30.681l-17.414,2.488s-32.34-.829-37.315-33.169,29.852-31.925,29.852-31.925Z" transform="translate(-68 949)"/>
    <path id="Path_25" data-name="Path 25" class="cls-6" d="M1115.305,194.038l-23.633,6.219-20.731,2.9-25.291,9.951-14.926,2.9s-12.853,6.219-16.17,7.878-32.754,6.219-32.754,6.219H960.655l-33.169,3.317-26.121,2.488h-37.73l-37.315,8.707h29.023l48.924,2.488,34-4.561,47.266-4.975s24.462-4.146,26.12-4.146,16.584-3.317,16.584-3.317l21.974-6.219s13.267-9.536,16.584-10.78,20.731-5.39,20.731-5.39l14.1-4.561Z" transform="translate(-68 949)"/>
    <path id="Path_3" data-name="Path 3" class="cls-7" d="M897.561-359.024H954.8l31.219-44.228,54.634,28.618h67.642l33.821,15.61,54.634,15.61,36.423,41.626,41.626,41.626v41.626l52.032,36.423,26.016-52.033V-343.415l-26.016-59.837L1274.8-580.163l-78.049-98.862-101.463-96.26-93.659-57.236L897.561-874.146,754.472-892.358l-166.5,39.024L460.488-801.3l-83.252,52.033-75.447,91.057-96.26,98.862-33.821,39.024,10.407,93.659v67.642L218.537-322.6l15.61,62.439v78.049L314.8,54.634l62.439,15.61L546.341-140.488,663.415-260.163,785.691-322.6l75.447-36.423Z" transform="translate(-68 949)"/>
    <path id="Path_5" data-name="Path 5" class="cls-8" d="M1235.772-309.594l-67.642,23.415-33.821,15.61-31.219,31.22,65.041-31.22h41.626l49.431-15.61Z" transform="translate(-68 949)"/>
    <path id="Path_6" data-name="Path 6" class="cls-8" d="M775.285-274.472l49.431-11.707h49.431l54.634,33.821-18.211,20.813L848.13-252.358l-36.423-22.114-57.236,11.707Z" transform="translate(-68 949)"/>
    <path id="Path_7" data-name="Path 7" class="cls-9" d="M1110.744-216.427l25.291-6.219,35.656,6.219,21.974,8.707,19.487,9.121-3.317,11.609-29.852-22.389-36.071-9.951s-19.9,2.073-21.145,2.9-36.9,17.828-36.9,17.828l-32.754,39.8,13.268-24.462Z" transform="translate(-68 949)"/>
    <path id="Path_9" data-name="Path 9" d="M1105.769-183.673l26.535-6.634h31.1l28.194,12.438,30.681,20.731H1203.2l-29.023-18.243-41.876-8.292-42.29,5.8Z" transform="translate(-68 949)"/>
    <path id="Path_11" data-name="Path 11" class="cls-10" d="M1109.086-166.674h15.755l5.39,14.511-7.463,14.926h-13.682l-9.121-9.951s-1.658-10.78,0-12.024,2.9-5.8,2.9-5.8Z" transform="translate(-68 949)"/>
    <path id="Path_110" data-name="Path 110" class="cls-11" d="M1268.452-280l47.887-17.346,7.8-10.023v10.023l-34.523,37.864v18.932l8.909,23.387,17.818-6.682-10.023,32.3-37.864-25.614Z" transform="translate(-68 949)"/>
    <path id="Path_14" data-name="Path 14" class="cls-12" d="M1259.187-231.545l-9.962,29.214L1220.2-185.746l-18.243-10.78,3.731,25.291-8.292,7.878-7.878,14.1,19.072,17.414,40.632,26.535,15.755,9.951,14.1,37.315V-174.551Z" transform="translate(-68 949)"/>
    <path id="Path_16" data-name="Path 16" class="cls-13" d="M1029.066-137.236,1041.5-86.654l14.926,37.73,3.731,29.437,7.463,21.145,4.146,26.535,16.584,26.121-8.707,10.365-12.024-23.633L1054.357,4.975l-7.048-51.826-8.292-23.633-12.024-59.289Z" transform="translate(-68 949)"/>
    <path id="Path_17" data-name="Path 17" class="cls-14" d="M1095.818,19.487l9.121,24.877,13.682,19.9V82.508l-4.146,12.024,10.78,4.975,24.047,12.024,13.682,26.121,5.39,29.852v9.121s26.95-19.9,27.779-21.56,10.78-21.974,10.78-21.974l-31.1-17-2.488-26.121,2.488-17.414-23.633-19.072-21.56-14.1-3.731-10.78-24.877-12.853Z" transform="translate(-68 949)"/>
    <path id="Path_18" data-name="Path 18" class="cls-15" d="M1099.55,97.848l-12.024,4.975-2.488,7.463,19.072-4.561,4.975-7.878Z" transform="translate(-68 949)"/>
    <path id="Path_19" data-name="Path 19" class="cls-14" d="M953.607,115.262c3.732,0,17.828,3.317,17.828,3.317l8.292,8.292,9.121,5.39-7.048,6.634-32.34,6.219-23.633-6.219L896.8,122.31l-12.438-17.828-21.56-5.39,6.634-15.755s-1.658-9.121,0-12.853,14.511-20.316,14.926-21.56,22.8-19.487,22.8-19.487l29.023,6.219V48.924L905.512,59.7,896.8,80.02s5.8,15.755,5.8,19.072,8.292,19.487,8.292,19.487l14.926,8.292,21.56,5.39h9.536Z" transform="translate(-68 949)"/>
    <path id="Path_20" data-name="Path 20" class="cls-16" d="M996.726,135.163s22.8,5.39,24.047,5.39H1052.7l16.584-7.878,14.1-23.218,2.9,1.658-12.853,17.828-13.682,11.609-41.047,3.732Z" transform="translate(-68 949)"/>
    <path id="Path_24" data-name="Path 24" class="cls-15" d="M1114.476,190.307s11.195-3.732,12.438-3.732h17.828v13.682l-3.731,9.951-14.1-2.9-8.707-7.048-6.219-3.731Z" transform="translate(-68 949)"/>
    <path id="Path_21" data-name="Path 21" class="cls-14" d="M1039.017,174.551l10.365-9.121,2.488,24.047v9.536h-9.536l-6.634-6.634Z" transform="translate(-68 949)"/>
    <path id="Path_22" data-name="Path 22" class="cls-13" d="M1002.945,151.748v27.364c0,1.658,9.951,26.95,9.951,26.95l20.316,2.073-5.8-22.389-9.121-9.536V156.723l-1.658-14.511-13.682-5.39Z" transform="translate(-68 949)"/>
    <path id="Path_23" data-name="Path 23" class="cls-17" d="M1054.772,142.626l-2.073,13.268,6.219,12.853,4.561,16.17,1.658,9.121,47.68-2.488,9.951-14.1-2.9-41.047-2.073-31.51V97.848l-2.9-4.561-9.121,4.561-9.951,7.048-9.951,4.561-14.1,21.974-12.853,9.121Z" transform="translate(-68 949)"/>
    <path id="Path_26" data-name="Path 26" class="cls-18" d="M828.809,245.45l31.925-7.878,21.145-2.073,27.779,2.073s23.633-3.732,26.95-4.146,28.194-2.9,28.194-2.9H976l34-2.488,8.292,2.488L996.312,235.5l-18.243,2.073H951.534l-20.731,5.8-24.462,2.073-24.462-2.073-26.121,2.073Z" transform="translate(-68 949)"/>
    <path id="Path_27" data-name="Path 27" class="cls-16" d="M1082.136,223.476l-26.95,21.145,24.462,3.317,6.634-9.951,3.731-12.438Z" transform="translate(-68 949)"/>
    <path id="Path_28" data-name="Path 28" class="cls-19" d="M1076.332,213.525l-44.778,22.389,8.292,12.024,31.1,2.073,7.463-2.073,6.219-10.365,3.317-9.536v-7.878Z" transform="translate(-68 949)"/>
    <path id="Path_29" data-name="Path 29" class="cls-9" d="M875.66,242.962,922.925,266.6l58.046,9.951s46.851,2.073,48.51,1.658,45.193-13.682,46.436-13.682,29.438-14.511,29.438-14.511l6.219-24.047V198.6s-43.949,10.365-45.193,11.609-46.437,17.414-46.437,17.414L986.776,232.6,904.682,241.3Z" transform="translate(-68 949)"/>
    <path id="Path_30" data-name="Path 30" class="cls-6" d="M962.728,312.2c4.561-2.073,52.656-25.706,52.656-25.706l32.34-5.39s27.779-2.073,26.535,0-30.267,18.243-30.267,18.243l-38.144,9.536L965.63,312.2Z" transform="translate(-68 949)"/>
    <path id="Path_48" data-name="Path 48" class="cls-20" d="M1235.772,126.871l39.49,15.23,51.85,104.543,14.645,229.827v14.5h8.478L1498.082,676.87l32.233,91.021L1487.5,847.139l-36.436,35.525L1409.165,961s-26.416,36.436-30.971,39.169-51.01,26.416-51.01,26.416-81.07,71.05-83.8,71.05-108.4,63.763-108.4,63.763l-96.556,6.376-152.121-40.991L827.1,1097.637,777,1042.983,718.7,938.229l-51.011-32.792-70.139-63.763-39.169-52.832-37.347-27.327,10.931-132.992,167.606-242.3,51.01-34.614,38.258,20.04L858.07,392.6l36.436,10.02s61.031-2.733,67.407-3.644,80.159-6.376,80.159-6.376h58.3l11.842-32.792,17.307-55.565L1145,278.736l45.545-58.3,26.416-54.654Z" transform="translate(-68 949)"/>
    <path id="Path_38" data-name="Path 38" class="cls-21" d="M717.693-200.672l85.41-12.853s64.265,12.853,69.24,15.341S921.682-167.5,921.682-167.5l6.219,48.51-4.146,47.266S869.44-58.875,866.538-58.875,818.443-45.193,815.126-42.7,770.763-14.1,769.1-13.268s-51.826-52.241-51.412-53.485-34.827,0-34.827,0L644.306-92.458,658.818-181.6Z" transform="translate(-68 949)"/>
    <path id="Path_36" data-name="Path 36" class="cls-3" d="M694.06-128.115c4.146-1.244,13.268-3.317,13.268-3.317L721.01-116.92l39.8,16.17,52.241-5.8s16.17-5.8,18.243-6.634,30.681-14.926,30.681-14.926l-12.853-21.56L834.2-162.528l-31.1-5.39L757.91-176.21l-28.194,8.292L714.79-154.65l-23.218,29.437Z" transform="translate(-68 949)"/>
    <path id="Path_33" data-name="Path 33" class="cls-5" d="M782.787-167.918l1.534,1.84,10.9,13.086,2.488,9.536v13.682l-8.292,19.487-11.609,4.561-16.584,4.146-33.584-12.853-5.39-21.56v-25.291l21.56-10.365,28.608-3.731Z" transform="translate(-68 949)"/>
    <path id="Path_31" data-name="Path 31" class="cls-22" d="M762.471-156.309l14.1,12.024-1.658,15.341-7.048,6.219-19.9-6.219v-12.438l6.219-9.536Z" transform="translate(-68 949)"/>
    <path id="Path_32" data-name="Path 32" class="cls-16" d="M793.152-148.016,782.787-133.5l22.389-7.048,6.634,7.048L823-144.7l4.146-12.853H823l-9.121,9.536L802.273-144.7Z" transform="translate(-68 949)"/>
    <path id="Path_34" data-name="Path 34" class="cls-23" d="M850.783-145.114v19.487l-31.925,14.511h31.925l26.121-9.951-5.39-14.1Z" transform="translate(-68 949)"/>
    <path id="Path_35" data-name="Path 35" d="M715.62-158.8l22.8-16.584s27.779-3.732,29.437-3.732,46.851,5.8,46.851,5.8l31.51,10.78,7.463,18.243s-25.706-19.072-26.95-18.243-34.413-3.732-34.413-3.732-32.34-7.048-33.584-7.048S715.62-158.8,715.62-158.8Z" transform="translate(-68 949)"/>
    <path id="Path_43" data-name="Path 43" d="M1178.707,649.473l52.832-12.753v25.505Z" transform="translate(-68 949)"/>
    <path id="Path_47" data-name="Path 47" class="cls-24" d="M970.813,610.3c6.585.911,74.9,11.842,74.9,11.842s138.457,30.971,142.1,33.7,64.674,7.287,64.674,7.287l7.287,12.753-7.287,30.06-108.4-10.02s-131.17-31.882-135.724-32.792-52.832-13.664-52.832-16.4S970.813,610.3,970.813,610.3Z" transform="translate(-68 949)"/>
    <path id="Path_37" data-name="Path 37" class="cls-9" d="M838.345-208.55c2.073.415,36.9,47.68,36.9,47.68l-38.974-30.681s-39.388-11.609-41.047-11.609-64.265,16.17-64.265,16.17H709.4l21.56-12.024,60.533-9.536s23.633-2.073,26.535-2.488S838.345-208.55,838.345-208.55Z" transform="translate(-68 949)"/>
    <path id="Path_39" data-name="Path 39" d="M1249.757,110.287,1232.45,125.7l-18.218,42.812L1195.1,214.062l-30.971,43.723-23.683,30.971-7.287,7.287-29.383,91.09H1127.7s50.1-15.485,52.832-17.307,61.03-73.783,61.03-73.783,28.238-53.743,30.971-54.654,17.307-37.347,17.307-37.347l6.376-20.04-19.129-44.634-35.525-7.287Z" transform="translate(-68 949)"/>
    <path id="Path_40" data-name="Path 40" class="cls-25" d="M840.763,429.946h183.091s77.427-5.465,82.892-7.287,93.823-31.882,93.823-31.882l53.743-50.1,34.614-49.189,28.238-67.407V262.34l-88.357,112.041-86.536,48.278L1067.577,434.5H855.337l-26.416,4.555Z" transform="translate(-68 949)"/>
    <path id="Path_41" data-name="Path 41" class="cls-26" d="M942.784,578.423H979.22l66.5-6.376,6.376,29.149L1027.5,614.859l-60.12-6.376Z" transform="translate(-68 949)"/>
    <path id="Path_42" data-name="Path 42" d="M1329.917,480.045l89.268,105.665-20.04,18.218,5.465,55.565s11.842,46.456,9.109,51.921,16.4,30.971,16.4,34.614-40.08,8.2-40.08,8.2l29.149,55.565s-15.485,27.327-14.574,30.06-36.436,39.169-36.436,39.169l21.862,32.792v56.476l-66.5-47.367v43.723l-44.634-20.04-48.278-65.585-12.753-15.485,12.753-53.743V754.227l24.594-49.189,9.109-39.169V636.72l26.416-27.327L1312.61,576.6l10.931-42.812V480.045Z" transform="translate(-68 949)"/>
    <path id="Path_44" data-name="Path 44" d="M852.6,955.536l3.644,40.991,18.218,24.594L961,1053.914l45.545,19.129s62.852-14.574,67.407-14.574,33.7-27.327,33.7-27.327l-38.258-29.149,25.505-19.129,40.991,7.287,16.4-24.594,34.614-32.792-71.05,32.792H1094.9l-31.882,41.9-10.02,30.06v20.951h-29.149l-26.416-20.951,9.109-35.525,6.376-36.436H886.308Z" transform="translate(-68 949)"/>
    <path id="Path_45" data-name="Path 45" class="cls-24" d="M1186.905,932.764l-5.465,54.654-51.921,39.169-26.416,81.07-89.268,10.931,106.576-5.465s48.278-22.772,54.654-25.505,30.06-66.5,30.06-66.5l5.465-43.723,28.238-22.773,40.08,22.773-19.129-33.7-38.258-50.1-16.4-6.376Z" transform="translate(-68 949)"/>
    <path id="Path_2" data-name="Path 2" class="cls-27" d="M1259.187-270.569l46.829,72.846,100.27,62,63.633,72.191-119.675-87.366h-15.61l135.285,98.862V23.415l11.446,88.455-58.276-78.049-29.8,46.829,6.383,104.065-20.813,67.642,20.813,54.634v49.431l70.244,62.439L1503.74,483.9V686.829L1399.675,564.553l-65.041-80.65-13.008-140.488V252.358L1274.8,143.089l-41.866-17.535,13.257-13.685,13-31.22L1274.8-7.8V-93.659l-15.61-75.447V-270.569Z" transform="translate(-68 949)"/>
    <path id="Path_1" data-name="Path 1" class="cls-27" d="M839.93-349.253C715.052-185.35,663.415-93.659,663.415-93.659V49.431l70.244,163.9,52.033,145.691,98.862,130.081,80.65,111.87v62.439l-35.38-77.221-84.3-29.445-59.837-57.236L830.2,600.976,757.073,499.512l-10.528,25.735-12.887,31.5,52.033,106.667-88.455-49.431L757.073,736.26v125.7l-93.659-125.7L621.789,637.4l-80.65,26.016V736.26l-49.431,158.7,28.618,145.691,36.991,138.955,64.472,58.768h93.659L642.6,1264.39l-101.463-26.016-85.854,26.016L348.618,1155.122,317.4,962.6,304.39,894.959l-15.61-127.48L239.35,663.415l-20.813-62.439-23.62-141.839L239.35,296.585,288.781,166.5,317.4,49.431l57.236,18.211L491.707-109.268,621.789-234.146,801.3-338.211Z" transform="translate(-68 949)"/>
    <path id="Path_46" data-name="Path 46" class="cls-24" d="M1165.044,715.969c9.109,4.555,82.892,5.465,82.892,5.465l-17.307,33.7-16.4,115.685-12.753,20.951-36.436-32.792s24.594-44.634,24.594-48.278-19.129-42.812-19.129-42.812l-10.02-55.565Z" transform="translate(-68 949)"/>
    <path id="Path_49" data-name="Path 49" class="cls-28" d="M847.139-712.325l20.951,110.219L879.931-501h216.795l5.465-30.06L1050.27-724.167l-112.952-5.465Z" transform="translate(-68 949)"/>
    <path id="Path_50" data-name="Path 50" class="cls-11" d="M270.538-471.847l58.3-114.774s98.377-92,104.754-95.645,127.526-82.892,130.259-83.8,138.457-56.476,138.457-56.476l178.537-29.149,153.032,45.545-163.962-30.06L715.969-817.99,585.71-766.068,473.669-696.84l-78.338,52.832-58.3,65.585Z" transform="translate(-68 949)"/>
    <path id="Path_51" data-name="Path 51" class="cls-11" d="M307.885-650.384l56.476-61.941L420.837-768.8s66.5-39.169,70.139-40.08S529.234-835.3,529.234-835.3l88.357-28.238,38.258-23.683H752.4l-84.714,14.574-44.634,24.594-86.536,23.683-49.189,32.792-58.3,40.991-30.06,27.327L358.9-694.107Z" transform="translate(-68 949)"/>
    <path id="Path_52" data-name="Path 52" class="cls-29" d="M1114.729-705.949l113.166,61.03,50.1,70.139,30.06,92.912,25.505,80.159,20.951,74.694v77.427l-24.594,62.852-27.327-11.842,30.971-40.991s0-51.01-3.644-54.654,3.644-61.03,3.644-61.03l-55.565-31.882V-442.7l-81.981-35.525-65.585-100.2Z" transform="translate(-68 949)"/>
    <path id="Path_53" data-name="Path 53" class="cls-11" d="M473.669-476.4s29.149,132.081,29.149,135.724,11.842,57.387,11.842,57.387l61.03,93.823,12.753-23.683L542.9-269.627l-19.129-54.654Z" transform="translate(-68 949)"/>
    <path id="Path_54" data-name="Path 54" class="cls-11" d="M377.113-431.767l25.505,156.675,24.594,90.179L474.58-133.9l20.951,23.683,10.02-8.2-71.961-84.714-30.971-88.357Z" transform="translate(-68 949)"/>
    <path id="Path_55" data-name="Path 55" class="cls-11" d="M377.113-139.517l41.9,48.427L470.936-75.6,455.451-56.476,408.995-80.159Z" transform="translate(-68 949)"/>
    <path id="Path_12" data-name="Path 12" class="cls-23" d="M1058.089-151.955l3.731,8.5s7.048,16.17,5.8,16.17-12.438,1.658-12.438,1.658l-4.561-6.219Z" transform="translate(-68 949)"/>
    <path id="Path_56" data-name="Path 56" class="cls-28" d="M651.294-82.892,643.005,37.893s3.552,182.362,0,189.467-4.737,197.757-4.737,197.757l-14.21-197.757V20.131Z" transform="translate(-68 949)"/>
    <path id="Path_109" data-name="Path 109" class="cls-11" d="M1199.406-343.705h34.523l41.205-28.255-27.841,41.205-13.364,22.273Z" transform="translate(-68 949)"/>
    <path id="Path_57" data-name="Path 57" class="cls-28" d="M556.561-75.787,503.273,69.866l-5.921,114.865-29.6,139.732V210.783s17.763-105.391,18.947-110.128,10.658-79.339,10.658-79.339Z" transform="translate(-68 949)"/>
    <path id="Path_58" data-name="Path 58" class="cls-28" d="M381.3,593.453l41.446,151.391-16.578,136.18,59.209-130.259-34.341-136.18-61.577-79.339Z" transform="translate(-68 949)"/>
    <path id="Path_59" data-name="Path 59" class="cls-28" d="M491.431,1062.2l34.341,92.365,67.5,91.181-93.55-76.971L464.2,1062.2v-45Z" transform="translate(-68 949)"/>
    <path id="Path_105" data-name="Path 105" class="cls-30" d="M916.219-726.842l36.693-3.943,98.14,3.943,20.153,57.175,15.772,63.089,10.515,59.146,5.257,13.669v34.306H1039.66l23-30.888h13.144l-17.744-102.52-23-65.061-91.348-9.858Z" transform="translate(-68 949)"/>
    <path id="Path_60" data-name="Path 60" class="cls-8" d="M492.615,324.463,528.14,428.67l28.42,47.367v50.919l-53.288,88.813-23.683-62.761-8.289-56.84L442.88,381.3s-31.973-9.473-31.973-13.026V332.752L419.2,209.6l30.788,114.865,21.315,28.42Z" transform="translate(-68 949)"/>
    <path id="Path_61" data-name="Path 61" class="cls-20" d="M674.978,303,665.5,364.725l17.763,123.154,11.842-71.05L683.267,351.7Z" transform="translate(-68 949)"/>
    <path id="Path_62" data-name="Path 62" class="cls-20" d="M616.014,387.133l10.413,69.957,9.473,45-9.473,49.735L605.112,457.09V403.8Z" transform="translate(-68 949)"/>
    <path id="Path_63" data-name="Path 63" class="cls-8" d="M860.108-359.476l-71.127,70.783-70.189,102.8s-60.023,101.01-60.023,95.089,18.577-114.056,18.577-114.056l5.921-22.5-68.682,52.1L629.979-209.6l-112.5,105.391L457.09-45,419.938-1.972l75.046-118.814,90-84.076S715.24-312.621,718.792-313.805s84.076-33.157,84.076-33.157Z" transform="translate(-68 949)"/>
    <path id="Path_64" data-name="Path 64" class="cls-20" d="M512.154,387.133l39.67,75.878,6.118,33.68v22.273L539.982,568.4l-34.341,34.341V577.876l-10.658-66.314,23.683-48.551Z" transform="translate(-68 949)"/>
    <path id="Path_65" data-name="Path 65" class="cls-20" d="M722.253,374.2l32.064,101.839,22.5,71.05s-30.788-50.919-35.525-49.735-28.42,24.868-28.42,24.868l9.382-107.76Z" transform="translate(-68 949)"/>
    <path id="Path_66" data-name="Path 66" class="cls-28" d="M635.9,614.859C751.949,787.474,748.4,820.631,748.4,820.631l-107.76-178.81Z" transform="translate(-68 949)"/>
    <path id="Path_67" data-name="Path 67" class="cls-8" d="M1308.618-113.391c8.181,9.184,81.6,60.1,81.6,60.1l11.842,65.129-53.288,37.893L1344.035,74.6l-23.683-34.341-36.709-56.84v-71.05l46.183,49.735,4.737-26.052Z" transform="translate(-68 949)"/>
    <path id="Path_68" data-name="Path 68" class="cls-28" d="M1402.059,367.093c17.763,15.394,71.05,94.734,71.05,94.734l29.6,39.078h-45s29.6,129.075,29.6,125.522-62.761-150.39-62.761-150.39V440.512Z" transform="translate(-68 949)"/>
    <path id="Path_104" data-name="Path 104" class="cls-31" d="M1053.113-646.356c14.806,45.692,29.264,112.725,29.264,112.725l-159.038,3.943L894.423-690.7l49.289-7.229,92.662,3.286Z" transform="translate(-68 949)"/>
    <path id="Path_69" data-name="Path 69" class="cls-32" d="M943.238-699.862c14.1-8.707,27.364-16.17,27.364-16.17l11.609,3.732,19.072,14.511,2.488,16.17-2.488,10.78,26.12-3.317v-4.975h14.511l4.146,8.292H1038.6l-8.292-4.975-6.634,4.975-26.95,3.732L961.066-655.5l-26.535,4.975v-31.1Z" transform="translate(-68 949)"/>
    <path id="Path_70" data-name="Path 70" class="cls-33" d="M945.311-693.228l10.78-3.732,12.853,3.732,8.707-5.39,14.511,1.658,5.39,9.951v11.195l-19.9,7.878-28.193,1.658-7.463-9.536v-11.195Z" transform="translate(-68 949)"/>
    <path id="Path_71" data-name="Path 71" class="cls-4" d="M970.192-684.664h7.171l1.887,1.887-9.058,2.453-7.549-.755v-1.7l1.887-1.887Z" transform="translate(-68 949)"/>
    <path id="Path_72" data-name="Path 72" class="cls-34" d="M953.208-687.117l-2.642,2.076v2.453h2.642l2.453-2.453Z" transform="translate(-68 947)"/>
    <path id="Path_13" data-name="Path 13" class="cls-4" d="M1249.225-270.569l.691,2.057,6.772,20.16,2.827,27.551,21.22-27.551L1277-282.765l-82.093-65.094-23.61-2.469,15.671,5.561,31.157,33.809Z" transform="translate(-68 949)"/>
    <path id="Path_73" data-name="Path 73" class="cls-34" d="M987.554-688.061h-.944l-.944,1.132v1.51l1.887,1.321,1.7-1.321v-2.642Z" transform="translate(-68 947)"/>
    <path id="Path_74" data-name="Path 74" class="cls-34" d="M950.565-679.191c1.321.189,20.193,1.887,20.193,1.887l1.036-.25,16.138-3.9-18.494,3.9Z" transform="translate(-68 949)"/>
    <path id="Path_75" data-name="Path 75" class="cls-33" d="M907.161-652.393l19.815,3.963,14.909-2.076,23.023-6.794,41.518-11.134,20-4.907,8.115.755,2.265,5.1-5.284,7.737h4.34l2.076,3.4,6.416-2.453-1.7,10.379-32.837,1.321-31.7,11.323-22.457,10.568-21.891,4.152-29.629-1.887s.755-15.475,1.132-16.8,1.132-13.4,1.132-13.4Z" transform="translate(-68 949)"/>
    <path id="Path_76" data-name="Path 76" class="cls-16" d="M913.2-652.393h14.531l6.228-2.265v3.963l-6.228.755Z" transform="translate(-68 949)"/>
    <path id="Path_77" data-name="Path 77" class="cls-35" d="M860.925-648.808c1.132-.566,8.115-6.228,8.115-6.228l15.286-6.228,14.909-2.831,16.041.755,18.683,3.208-.755,3.586-6.605,2.453h-20.57l-2.642,12.078H890.554l-26.986,6.039,5.473-6.039,11.889-4.907v-1.887Z" transform="translate(-68 949)"/>
    <path id="Path_78" data-name="Path 78" class="cls-32" d="M940.752-619.934c-.377.566,4.718,14.72,4.718,14.72l18.117-5.473,29.817-9.247,21.136-5.1,10.757-1.132-4.529-8.87-13.021-10.379-31.516,12.455-16.607,7.926-14.909,3.586Z" transform="translate(-68 949)"/>
    <path id="Path_79" data-name="Path 79" class="cls-36" d="M1016.616-645.411l.486.729,1.4,2.1,1.132.944,2.265-4.718h10.379l-5.85,13.588-2.265,2.831-5.661-8.492-10.757-6.983,8.115-.944Z" transform="translate(-68 949)"/>
    <path id="Path_80" data-name="Path 80" class="cls-35" d="M940.732-614.839l-13.19,8.681,16.23,1.321Z" transform="translate(-68 949)"/>
    <path id="Path_81" data-name="Path 81" class="cls-33" d="M926.787-604.837l18.306,2.265,33.4-11.134s16.041-5.284,16.607-5.284,16.8-3.4,16.8-3.4l13.965-1.7,19.438,1.7-1.132,24.344-15.664-1.887-27.364,3.208-20,5.85L961.322-583.7,948.3-580.3l-14.154,1.132-9.058-1.132v-15.1Z" transform="translate(-68 949)"/>
    <path id="Path_82" data-name="Path 82" class="cls-16" d="M914.9-605.214h1.321v23.4l-2.265-.944v-5.284Z" transform="translate(-68 949)"/>
    <path id="Path_83" data-name="Path 83" class="cls-32" d="M922.258-619.557h9.058l-6.794,17.551v23.59l3.4,11.512,3.4,4.718-3.4,5.473-6.605-6.983-3.019-9.058-2.076-10,.755-21.891Z" transform="translate(-68 949)"/>
    <path id="Path_84" data-name="Path 84" class="cls-32" d="M960-580.116l6.982,4.529,7.926,3.208,6.416,6.794L995.1-568.6v-4.718l-3.208-7.549,24.345-8.492,5.1,7.737-1.132,9.247,13.021.944v-11.512l-3.586-14.72-14.72,1.132-14.531,1.7-13.4,4.34-17.362,6.228-9.625,3.4Z" transform="translate(-68 949)"/>
    <path id="Path_85" data-name="Path 85" class="cls-35" d="M1041.341-596.346l-9.058,3.019-1.132-3.774Z" transform="translate(-68 949)"/>
    <path id="Path_86" data-name="Path 86" class="cls-35" d="M995.482-572.756l13.4-10.191,8.492-4.529-1.132-1.887L992.463-580.3l3.019,6.039Z" transform="translate(-68 949)"/>
    <path id="Path_87" data-name="Path 87" class="cls-35" d="M964.533-576.153l-13.776,13.4L932.64-552h8.87l12.078-3.963,13.21-4.34,13.21-4.718-3.208-4.907-6.228-3.208Z" transform="translate(-68 949)"/>
    <path id="Path_88" data-name="Path 88" class="cls-33" d="M931.316-550.865l-.941,4.907,2.076,10,.755,8.681,10.757.944,10.191-.944,12.833-3.963,9.058-3.4,12.833-5.284,17.551-4.529,10-.755h11.512l11.134,3.019,2.642-25.666L1025.3-570.3l-16.607.944-24.911,5.85-13.21,4.152L955.1-553.7l-11.134,2.831-7.36,1.7Z" transform="translate(-68 949)"/>
    <path id="Path_89" data-name="Path 89" class="cls-35" d="M1042.85-557.848l11.7,2.076,11.323,4.529,12.644,7.926-20.193-2.453v1.321l16.418,13.965-15.1-4.152h-15.1l-19.438,1.51,2.642-6.039H1040.4Z" transform="translate(-68 949)"/>
    <path id="Path_98" data-name="Path 98" class="cls-16" d="M1016.43-540.014l-2.642,5.19,5.473-3.774-2.831,6.794,5.284-5.473,1.132,4.529,2.642-7.266-5.473-1.038Z" transform="translate(-68 949)"/>
    <path id="Path_90" data-name="Path 90" class="cls-35" d="M1013.788-538.41l-11.323,2.831-10.757,3.586v2.265l22.08-2.265v-.944l-3.774-.944Z" transform="translate(-68 949)"/>
    <path id="Path_91" data-name="Path 91" class="cls-16" d="M992.463-538.41l14.531-3.774h7.549v.944l-12.455,2.831-10.568,4.152Z" transform="translate(-68 949)"/>
    <path id="Path_92" data-name="Path 92" class="cls-16" d="M974.665-530.484l1.191,1.887,2.642-1.887,1.132-3.019-4.965,2.265Z" transform="translate(-68 949)"/>
    <path id="Path_97" data-name="Path 97" class="cls-33" d="M978.687-528.6l-1.51,2.453s-4.718.189-4.152.755,6.983-.755,6.983-.755l-1.321,2.831,6.228-2.831-1.321,2.831,3.586-2.076v-6.228h-3.586l-2.453-.755Z" transform="translate(-68 949)"/>
    <path id="Path_93" data-name="Path 93" class="cls-32" d="M980.008-534.258l12.644-3.963-3.774,12.455-1.51,1.51-.755-4.907-3.4.944v-.944l-2.265.944-.944-.944-2.265,2.076Z" transform="translate(-68 948)"/>
    <path id="Path_95" data-name="Path 95" class="cls-35" d="M1038.7-645.411l-7.926,4.15,1.887-5.1Z" transform="translate(-68 949)"/>
    <path id="Path_96" data-name="Path 96" class="cls-35" d="M1021.714-646.354l-1.887,4.528-2.453-4.528Z" transform="translate(-68 949)"/>
    <path id="Path_99" data-name="Path 99" class="cls-33" d="M931.316-562.754l5.1.944,3.963-3.586.755,2.642-8.3,2.076,1.7,1.51h5.1l-1.132,1.887-7.174-1.887,5.1,2.642h-5.1l-4.527-2.642v-5.1Z" transform="translate(-68 949)"/>
    <path id="Path_100" data-name="Path 100" class="cls-33" d="M1038.7-670.7l-6.228,10.379H1037l1.7,2.642,5.473-2.642L1047-670.7l-4.907-3.586Z" transform="translate(-68 949)"/>
    <path id="Path_94" data-name="Path 94" class="cls-32" d="M1016.43-542.939H1027l-.944,5.85-1.887-2.642-2.453.755v-1.7l-2.265,1.7-3.019-1.7Z" transform="translate(-68 949)"/>
    <path id="Path_101" data-name="Path 101" class="cls-37" d="M916.219-639.778c4.857,9.887,14.425,2.551,14.425,2.551l8.611,7.016,10.206-9.568,14.033,2.551,9.249-12.119h19.774l5.741-7.016h18.817l-1.914-6.06,7.335,6.06-29.98,1.914L961.262-645.2l-2.87,2.551-19.136,8.292Z" transform="translate(-68 949)"/>
    <path id="Path_102" data-name="Path 102" class="cls-37" d="M940.732-595.214c.895,8.247,12.213,2.318,12.213,2.318l14.014-9.7-5.929,12.936L976.662-602.6l3.773,4.851,7.546-11.319L996.6-602.6l15.092-2.156,11.858-4.312,10.78,4.312v-15.092l-18.326,10.78H991.214l-10.78,4.312-22.1,11.858Z" transform="translate(-68 949)"/>
    <path id="Path_103" data-name="Path 103" class="cls-37" d="M935.657-544.166c9.2,12.176,13.516,0,13.516,0v8.942l11.858-16.17,6.468,10.241,14.014-3.013,8.624-12.618,10.241,9.163,18.326-12.4,9.163,8.624,5.929-11.319-20.482,11.319-12.936-5.39-12.936-3.234L977.2-547.62l-9.7,3.455-14.014-3.455Z" transform="translate(-68 949)"/>
    <path id="Path_106" data-name="Path 106" class="cls-38" d="M970.387-716.128l-12.568,7.412L991.9-705.34l-9.674-7Z" transform="translate(-68 949)"/>
    <path id="Path_108" data-name="Path 108" class="cls-39" d="M536.781-652.3l98-54.872H660.4l64.592-16.7,17.818,10.023-4.455-25.614,75.729-16.7,21.159,42.319v-42.319l18.932-16.7,23.387,16.7h15.591l23.387,10.023,5.568-35.637-55.683-10.023L786.24-763.967l-76.842,24.5-40.092,6.682Z" transform="translate(-68 949)"/>
    <path id="Path_111" data-name="Path 111" class="cls-11" d="M242.777-431.767V-375.3l-30.069,33.41-21.159-24.5,26.728,59.024,11.137,15.591,22.273-15.591v-59.024l6.682-44.546,8.909-20.829,5.568-32.626-34.523-5.568-20.046,15.591Z" transform="translate(-68 949)"/>
    <path id="Path_112" data-name="Path 112" class="cls-11" d="M249.459-197.117v37.864L287.323-52.342l-11.137-60.137-12.25-46.773Z" transform="translate(-68 949)"/>
    <path id="Path_113" data-name="Path 113" class="cls-11" d="M340.778-75.787l43.433,46.832,54.569,6.682L424.3,2.227l-40.092-12.25L330.755-70.16l-27.841-51.228Z" transform="translate(-68 949)"/>
    <path id="Path_114" data-name="Path 114" class="cls-11" d="M797.713-523.312l10.8,109.033,7.8,46.773v-61.251Z" transform="translate(-68 949)"/>
  </g>
</svg>
